<svg id="Layer_1" data-name="Layer 1" xmlns="http://www.w3.org/2000/svg" viewBox="0 0 122.88 85.75"><defs><style>.cls-1{fill-rule:evenodd;}</style></defs><title>data-analysis</title><path class="cls-1" d="M114.69,36.31v48a1.45,1.45,0,0,1-1.44,1.44H100.84a1.45,1.45,0,0,1-1.44-1.44V48.61c2.54-2.48,5.65-5.48,8.83-8.54l5-4.82a12.84,12.84,0,0,0,1.45,1.06Zm-84.56-13a20.9,20.9,0,0,0-8.08,1l-.06,0A20.87,20.87,0,0,0,8.34,48.78a20.45,20.45,0,0,0,1.79,4.93L.31,63.11a1,1,0,0,0,0,1.41l5.56,5.82a1,1,0,0,0,1.41,0l9.45-9.12a20.78,20.78,0,0,0,4.63,2.47,21.48,21.48,0,0,0,6,1.3A20.9,20.9,0,0,0,48.51,37.51l0,0A20.86,20.86,0,0,0,30.13,23.34ZM17.75,31.62a16.65,16.65,0,0,1,23.52,1.6l0,.05a16.7,16.7,0,0,1,3.19,5.59l0,0A16.71,16.71,0,0,1,34,60a16.8,16.8,0,0,1-6.44.82,16.44,16.44,0,0,1-6.28-1.69l0,0a16.7,16.7,0,0,1-5.1-4l-.05-.06a16.63,16.63,0,0,1-3.2-5.59l0-.05a16.71,16.71,0,0,1-.8-6.39,16.62,16.62,0,0,1,5.66-11.43Zm28.59-8.08,11-9.6c7.26,7.12,14.3,15.72,21.49,22.82L105,10.43,96.55,2l26.33-2L121.4,26.83l-8.1-8.1c-5.81,5.89-19.55,18.86-25.37,24.68-7.35,7.35-10.86,7.49-18.21.13L57.3,29.73l-3.86,3.42a28.54,28.54,0,0,0-1.37-2.7,26.3,26.3,0,0,0-3-4.18h0a26.43,26.43,0,0,0-2.77-2.72ZM64.76,54.88V84.31a1.45,1.45,0,0,1-1.44,1.44H50.91a1.45,1.45,0,0,1-1.44-1.44V62.92a29,29,0,0,0,2.12-2.44,27.34,27.34,0,0,0,2.91-4.66,27.33,27.33,0,0,0,2.65-8.6l3.31,3.68.43.45a50.63,50.63,0,0,0,3.87,3.53Zm-25,14.5V84.31a1.45,1.45,0,0,1-1.44,1.44H25.94a1.45,1.45,0,0,1-1.44-1.44V70.93a29.79,29.79,0,0,0,3.08.38,28.48,28.48,0,0,0,10.78-1.4c.48-.17,1-.34,1.43-.53ZM89.72,57.07V84.31a1.45,1.45,0,0,1-1.44,1.44H75.87a1.45,1.45,0,0,1-1.44-1.44V59.91a19.22,19.22,0,0,0,4.54.46,19.79,19.79,0,0,0,10.75-3.3Z"/></svg>